<?xml version="1.0" encoding="UTF-8"?>
<svg xmlns="http://www.w3.org/2000/svg" viewBox="0 0 83 74" width="664" height="592" shape-rendering="crispEdges">
  <title>Music note hook pixel-art SVG (transparent background)</title>
  <rect x="42" y="12" width="6" height="1" fill="#303432"/>
  <rect x="40" y="13" width="2" height="1" fill="#303432"/>
  <rect x="43" y="13" width="4" height="1" fill="#e8ab5d"/>
  <rect x="47" y="13" width="1" height="1" fill="#b3845b"/>
  <rect x="48" y="13" width="1" height="1" fill="#303432"/>
  <rect x="40" y="14" width="2" height="1" fill="#303432"/>
  <rect x="42" y="14" width="2" height="1" fill="#e8ab5d"/>
  <rect x="44" y="14" width="3" height="1" fill="#dc7c31"/>
  <rect x="48" y="14" width="1" height="1" fill="#303432"/>
  <rect x="39" y="15" width="1" height="1" fill="#303432"/>
  <rect x="41" y="15" width="1" height="1" fill="#e8ab5d"/>
  <rect x="42" y="15" width="1" height="1" fill="#dc7c31"/>
  <rect x="43" y="15" width="1" height="1" fill="#956b4d"/>
  <rect x="44" y="15" width="2" height="1" fill="#303432"/>
  <rect x="46" y="15" width="2" height="1" fill="#dc7c31"/>
  <rect x="48" y="15" width="1" height="1" fill="#da8235"/>
  <rect x="49" y="15" width="1" height="1" fill="#303432"/>
  <rect x="39" y="16" width="1" height="1" fill="#303432"/>
  <rect x="40" y="16" width="3" height="1" fill="#e8ab5d"/>
  <rect x="43" y="16" width="1" height="1" fill="#956b4d"/>
  <rect x="44" y="16" width="2" height="1" fill="#303432"/>
  <rect x="46" y="16" width="2" height="1" fill="#e8ab5d"/>
  <rect x="48" y="16" width="1" height="1" fill="#dc7c31"/>
  <rect x="49" y="16" width="2" height="1" fill="#303432"/>
  <rect x="39" y="17" width="1" height="1" fill="#303432"/>
  <rect x="40" y="17" width="2" height="1" fill="#e8ab5d"/>
  <rect x="42" y="17" width="1" height="1" fill="#303432"/>
  <rect x="43" y="17" width="1" height="1" fill="#595650"/>
  <rect x="46" y="17" width="2" height="1" fill="#303432"/>
  <rect x="48" y="17" width="1" height="1" fill="#dc7c31"/>
  <rect x="49" y="17" width="2" height="1" fill="#303432"/>
  <rect x="39" y="18" width="1" height="1" fill="#303432"/>
  <rect x="40" y="18" width="1" height="1" fill="#e8ab5d"/>
  <rect x="41" y="18" width="1" height="1" fill="#dc7c31"/>
  <rect x="42" y="18" width="1" height="1" fill="#303432"/>
  <rect x="43" y="18" width="1" height="1" fill="#5e4737"/>
  <rect x="46" y="18" width="1" height="1" fill="#303432"/>
  <rect x="47" y="18" width="1" height="1" fill="#473523"/>
  <rect x="48" y="18" width="1" height="1" fill="#dc7c31"/>
  <rect x="49" y="18" width="2" height="1" fill="#303432"/>
  <rect x="39" y="19" width="1" height="1" fill="#303432"/>
  <rect x="40" y="19" width="1" height="1" fill="#e8ab5d"/>
  <rect x="41" y="19" width="1" height="1" fill="#dc7c31"/>
  <rect x="42" y="19" width="1" height="1" fill="#303432"/>
  <rect x="46" y="19" width="2" height="1" fill="#303432"/>
  <rect x="48" y="19" width="1" height="1" fill="#dc7c31"/>
  <rect x="49" y="19" width="2" height="1" fill="#303432"/>
  <rect x="39" y="20" width="1" height="1" fill="#303432"/>
  <rect x="40" y="20" width="1" height="1" fill="#e8ab5d"/>
  <rect x="41" y="20" width="1" height="1" fill="#dc7c31"/>
  <rect x="42" y="20" width="1" height="1" fill="#303432"/>
  <rect x="46" y="20" width="2" height="1" fill="#303432"/>
  <rect x="48" y="20" width="1" height="1" fill="#da8235"/>
  <rect x="49" y="20" width="2" height="1" fill="#303432"/>
  <rect x="39" y="21" width="1" height="1" fill="#303432"/>
  <rect x="40" y="21" width="1" height="1" fill="#e8ab5d"/>
  <rect x="41" y="21" width="1" height="1" fill="#dc7c31"/>
  <rect x="42" y="21" width="2" height="1" fill="#303432"/>
  <rect x="46" y="21" width="1" height="1" fill="#303432"/>
  <rect x="47" y="21" width="1" height="1" fill="#473523"/>
  <rect x="48" y="21" width="1" height="1" fill="#dc7c31"/>
  <rect x="49" y="21" width="2" height="1" fill="#303432"/>
  <rect x="63" y="21" width="6" height="1" fill="#303432"/>
  <rect x="39" y="22" width="1" height="1" fill="#303432"/>
  <rect x="40" y="22" width="2" height="1" fill="#9f512a"/>
  <rect x="42" y="22" width="1" height="1" fill="#e8ab5d"/>
  <rect x="43" y="22" width="1" height="1" fill="#956b4d"/>
  <rect x="44" y="22" width="2" height="1" fill="#303432"/>
  <rect x="46" y="22" width="2" height="1" fill="#e8ab5d"/>
  <rect x="48" y="22" width="1" height="1" fill="#9f512a"/>
  <rect x="49" y="22" width="2" height="1" fill="#303432"/>
  <rect x="58" y="22" width="5" height="1" fill="#303432"/>
  <rect x="63" y="22" width="1" height="1" fill="#eac278"/>
  <rect x="64" y="22" width="2" height="1" fill="#e8ab5d"/>
  <rect x="66" y="22" width="1" height="1" fill="#9f512a"/>
  <rect x="67" y="22" width="1" height="1" fill="#956b4d"/>
  <rect x="68" y="22" width="1" height="1" fill="#303432"/>
  <rect x="39" y="23" width="1" height="1" fill="#303432"/>
  <rect x="40" y="23" width="1" height="1" fill="#956b4d"/>
  <rect x="41" y="23" width="1" height="1" fill="#9f512a"/>
  <rect x="42" y="23" width="1" height="1" fill="#dc7c31"/>
  <rect x="44" y="23" width="2" height="1" fill="#303432"/>
  <rect x="46" y="23" width="2" height="1" fill="#dc7c31"/>
  <rect x="48" y="23" width="1" height="1" fill="#9f512a"/>
  <rect x="49" y="23" width="2" height="1" fill="#303432"/>
  <rect x="58" y="23" width="5" height="1" fill="#303432"/>
  <rect x="63" y="23" width="3" height="1" fill="#e8ab5d"/>
  <rect x="66" y="23" width="2" height="1" fill="#9f512a"/>
  <rect x="68" y="23" width="1" height="1" fill="#303432"/>
  <rect x="40" y="24" width="2" height="1" fill="#303432"/>
  <rect x="42" y="24" width="3" height="1" fill="#9f512a"/>
  <rect x="45" y="24" width="1" height="1" fill="#dc7c31"/>
  <rect x="46" y="24" width="2" height="1" fill="#9f512a"/>
  <rect x="48" y="24" width="1" height="1" fill="#303432"/>
  <rect x="53" y="24" width="5" height="1" fill="#303432"/>
  <rect x="58" y="24" width="6" height="1" fill="#e8ab5d"/>
  <rect x="64" y="24" width="1" height="1" fill="#da8235"/>
  <rect x="65" y="24" width="1" height="1" fill="#dc7c31"/>
  <rect x="66" y="24" width="2" height="1" fill="#9f512a"/>
  <rect x="68" y="24" width="1" height="1" fill="#303432"/>
  <rect x="40" y="25" width="2" height="1" fill="#595650"/>
  <rect x="42" y="25" width="1" height="1" fill="#5e4737"/>
  <rect x="43" y="25" width="1" height="1" fill="#9f512a"/>
  <rect x="44" y="25" width="2" height="1" fill="#dc7c31"/>
  <rect x="46" y="25" width="1" height="1" fill="#5e4737"/>
  <rect x="47" y="25" width="1" height="1" fill="#595650"/>
  <rect x="48" y="25" width="1" height="1" fill="#303432"/>
  <rect x="53" y="25" width="2" height="1" fill="#473523"/>
  <rect x="55" y="25" width="1" height="1" fill="#5e4737"/>
  <rect x="56" y="25" width="2" height="1" fill="#473523"/>
  <rect x="58" y="25" width="6" height="1" fill="#e8ab5d"/>
  <rect x="64" y="25" width="1" height="1" fill="#da8235"/>
  <rect x="65" y="25" width="1" height="1" fill="#dc7c31"/>
  <rect x="66" y="25" width="2" height="1" fill="#9f512a"/>
  <rect x="68" y="25" width="1" height="1" fill="#303432"/>
  <rect x="42" y="26" width="1" height="1" fill="#303432"/>
  <rect x="43" y="26" width="1" height="1" fill="#473523"/>
  <rect x="44" y="26" width="2" height="1" fill="#da8235"/>
  <rect x="46" y="26" width="7" height="1" fill="#303432"/>
  <rect x="53" y="26" width="6" height="1" fill="#e8ab5d"/>
  <rect x="59" y="26" width="7" height="1" fill="#dc7c31"/>
  <rect x="66" y="26" width="2" height="1" fill="#9f512a"/>
  <rect x="68" y="26" width="1" height="1" fill="#303432"/>
  <rect x="42" y="27" width="1" height="1" fill="#303432"/>
  <rect x="43" y="27" width="1" height="1" fill="#473523"/>
  <rect x="44" y="27" width="1" height="1" fill="#e8ab5d"/>
  <rect x="45" y="27" width="1" height="1" fill="#da8235"/>
  <rect x="46" y="27" width="2" height="1" fill="#303432"/>
  <rect x="48" y="27" width="5" height="1" fill="#eac278"/>
  <rect x="53" y="27" width="1" height="1" fill="#e8ab5d"/>
  <rect x="54" y="27" width="12" height="1" fill="#dc7c31"/>
  <rect x="66" y="27" width="2" height="1" fill="#9f512a"/>
  <rect x="68" y="27" width="1" height="1" fill="#303432"/>
  <rect x="42" y="28" width="1" height="1" fill="#303432"/>
  <rect x="43" y="28" width="1" height="1" fill="#473523"/>
  <rect x="44" y="28" width="2" height="1" fill="#e8ab5d"/>
  <rect x="46" y="28" width="2" height="1" fill="#303432"/>
  <rect x="48" y="28" width="6" height="1" fill="#e8ab5d"/>
  <rect x="54" y="28" width="12" height="1" fill="#dc7c31"/>
  <rect x="66" y="28" width="2" height="1" fill="#9f512a"/>
  <rect x="68" y="28" width="1" height="1" fill="#303432"/>
  <rect x="42" y="29" width="1" height="1" fill="#303432"/>
  <rect x="43" y="29" width="1" height="1" fill="#473523"/>
  <rect x="44" y="29" width="5" height="1" fill="#e8ab5d"/>
  <rect x="49" y="29" width="11" height="1" fill="#dc7c31"/>
  <rect x="60" y="29" width="4" height="1" fill="#9f512a"/>
  <rect x="64" y="29" width="2" height="1" fill="#dc7c31"/>
  <rect x="66" y="29" width="2" height="1" fill="#9f512a"/>
  <rect x="68" y="29" width="1" height="1" fill="#303432"/>
  <rect x="42" y="30" width="1" height="1" fill="#303432"/>
  <rect x="43" y="30" width="1" height="1" fill="#473523"/>
  <rect x="44" y="30" width="5" height="1" fill="#e8ab5d"/>
  <rect x="49" y="30" width="11" height="1" fill="#dc7c31"/>
  <rect x="60" y="30" width="4" height="1" fill="#9f512a"/>
  <rect x="64" y="30" width="2" height="1" fill="#dc7c31"/>
  <rect x="66" y="30" width="2" height="1" fill="#9f512a"/>
  <rect x="68" y="30" width="1" height="1" fill="#303432"/>
  <rect x="42" y="31" width="1" height="1" fill="#303432"/>
  <rect x="43" y="31" width="1" height="1" fill="#473523"/>
  <rect x="44" y="31" width="1" height="1" fill="#e8ab5d"/>
  <rect x="45" y="31" width="1" height="1" fill="#da8235"/>
  <rect x="46" y="31" width="9" height="1" fill="#dc7c31"/>
  <rect x="55" y="31" width="5" height="1" fill="#9f512a"/>
  <rect x="60" y="31" width="1" height="1" fill="#473523"/>
  <rect x="61" y="31" width="3" height="1" fill="#303432"/>
  <rect x="64" y="31" width="1" height="1" fill="#e8ab5d"/>
  <rect x="65" y="31" width="1" height="1" fill="#dc7c31"/>
  <rect x="66" y="31" width="2" height="1" fill="#9f512a"/>
  <rect x="68" y="31" width="1" height="1" fill="#303432"/>
  <rect x="42" y="32" width="1" height="1" fill="#303432"/>
  <rect x="43" y="32" width="1" height="1" fill="#5e4737"/>
  <rect x="44" y="32" width="1" height="1" fill="#e8ab5d"/>
  <rect x="45" y="32" width="1" height="1" fill="#da8235"/>
  <rect x="46" y="32" width="9" height="1" fill="#dc7c31"/>
  <rect x="55" y="32" width="5" height="1" fill="#9f512a"/>
  <rect x="60" y="32" width="4" height="1" fill="#303432"/>
  <rect x="64" y="32" width="1" height="1" fill="#e8ab5d"/>
  <rect x="65" y="32" width="1" height="1" fill="#dc7c31"/>
  <rect x="66" y="32" width="2" height="1" fill="#9f512a"/>
  <rect x="68" y="32" width="1" height="1" fill="#303432"/>
  <rect x="42" y="33" width="1" height="1" fill="#303432"/>
  <rect x="43" y="33" width="1" height="1" fill="#473523"/>
  <rect x="44" y="33" width="1" height="1" fill="#e8ab5d"/>
  <rect x="45" y="33" width="6" height="1" fill="#dc7c31"/>
  <rect x="51" y="33" width="4" height="1" fill="#9f512a"/>
  <rect x="55" y="33" width="1" height="1" fill="#473523"/>
  <rect x="56" y="33" width="4" height="1" fill="#303432"/>
  <rect x="63" y="33" width="1" height="1" fill="#303432"/>
  <rect x="64" y="33" width="1" height="1" fill="#b3845b"/>
  <rect x="65" y="33" width="1" height="1" fill="#dc7c31"/>
  <rect x="66" y="33" width="2" height="1" fill="#9f512a"/>
  <rect x="68" y="33" width="1" height="1" fill="#303432"/>
  <rect x="42" y="34" width="1" height="1" fill="#303432"/>
  <rect x="43" y="34" width="1" height="1" fill="#473523"/>
  <rect x="44" y="34" width="1" height="1" fill="#e8ab5d"/>
  <rect x="45" y="34" width="6" height="1" fill="#9f512a"/>
  <rect x="51" y="34" width="4" height="1" fill="#473523"/>
  <rect x="63" y="34" width="1" height="1" fill="#303432"/>
  <rect x="64" y="34" width="1" height="1" fill="#e8ab5d"/>
  <rect x="65" y="34" width="1" height="1" fill="#dc7c31"/>
  <rect x="66" y="34" width="2" height="1" fill="#9f512a"/>
  <rect x="68" y="34" width="1" height="1" fill="#303432"/>
  <rect x="42" y="35" width="1" height="1" fill="#303432"/>
  <rect x="43" y="35" width="1" height="1" fill="#473523"/>
  <rect x="44" y="35" width="1" height="1" fill="#e8ab5d"/>
  <rect x="45" y="35" width="5" height="1" fill="#9f512a"/>
  <rect x="50" y="35" width="1" height="1" fill="#5e4737"/>
  <rect x="51" y="35" width="4" height="1" fill="#303432"/>
  <rect x="63" y="35" width="1" height="1" fill="#303432"/>
  <rect x="64" y="35" width="1" height="1" fill="#e8ab5d"/>
  <rect x="65" y="35" width="1" height="1" fill="#dc7c31"/>
  <rect x="66" y="35" width="2" height="1" fill="#9f512a"/>
  <rect x="68" y="35" width="1" height="1" fill="#303432"/>
  <rect x="42" y="36" width="1" height="1" fill="#303432"/>
  <rect x="43" y="36" width="1" height="1" fill="#473523"/>
  <rect x="44" y="36" width="1" height="1" fill="#e8ab5d"/>
  <rect x="45" y="36" width="2" height="1" fill="#9f512a"/>
  <rect x="47" y="36" width="3" height="1" fill="#303432"/>
  <rect x="50" y="36" width="1" height="1" fill="#956b4d"/>
  <rect x="63" y="36" width="1" height="1" fill="#303432"/>
  <rect x="64" y="36" width="1" height="1" fill="#e8ab5d"/>
  <rect x="65" y="36" width="1" height="1" fill="#dc7c31"/>
  <rect x="66" y="36" width="2" height="1" fill="#9f512a"/>
  <rect x="68" y="36" width="1" height="1" fill="#303432"/>
  <rect x="42" y="37" width="1" height="1" fill="#303432"/>
  <rect x="43" y="37" width="1" height="1" fill="#473523"/>
  <rect x="44" y="37" width="1" height="1" fill="#e8ab5d"/>
  <rect x="45" y="37" width="2" height="1" fill="#9f512a"/>
  <rect x="47" y="37" width="3" height="1" fill="#303432"/>
  <rect x="50" y="37" width="1" height="1" fill="#595650"/>
  <rect x="63" y="37" width="1" height="1" fill="#303432"/>
  <rect x="64" y="37" width="1" height="1" fill="#b3845b"/>
  <rect x="65" y="37" width="1" height="1" fill="#dc7c31"/>
  <rect x="66" y="37" width="2" height="1" fill="#9f512a"/>
  <rect x="68" y="37" width="1" height="1" fill="#303432"/>
  <rect x="26" y="38" width="1" height="1" fill="#303432"/>
  <rect x="42" y="38" width="1" height="1" fill="#303432"/>
  <rect x="43" y="38" width="1" height="1" fill="#473523"/>
  <rect x="44" y="38" width="1" height="1" fill="#e8ab5d"/>
  <rect x="45" y="38" width="2" height="1" fill="#9f512a"/>
  <rect x="47" y="38" width="2" height="1" fill="#303432"/>
  <rect x="63" y="38" width="1" height="1" fill="#303432"/>
  <rect x="64" y="38" width="1" height="1" fill="#e8ab5d"/>
  <rect x="65" y="38" width="1" height="1" fill="#dc7c31"/>
  <rect x="66" y="38" width="2" height="1" fill="#9f512a"/>
  <rect x="68" y="38" width="1" height="1" fill="#303432"/>
  <rect x="26" y="39" width="1" height="1" fill="#303432"/>
  <rect x="42" y="39" width="1" height="1" fill="#303432"/>
  <rect x="43" y="39" width="1" height="1" fill="#473523"/>
  <rect x="44" y="39" width="1" height="1" fill="#e8ab5d"/>
  <rect x="45" y="39" width="2" height="1" fill="#9f512a"/>
  <rect x="47" y="39" width="2" height="1" fill="#303432"/>
  <rect x="63" y="39" width="1" height="1" fill="#303432"/>
  <rect x="64" y="39" width="1" height="1" fill="#e8ab5d"/>
  <rect x="65" y="39" width="1" height="1" fill="#dc7c31"/>
  <rect x="66" y="39" width="2" height="1" fill="#9f512a"/>
  <rect x="68" y="39" width="1" height="1" fill="#303432"/>
  <rect x="24" y="40" width="3" height="1" fill="#303432"/>
  <rect x="42" y="40" width="1" height="1" fill="#303432"/>
  <rect x="43" y="40" width="1" height="1" fill="#473523"/>
  <rect x="44" y="40" width="1" height="1" fill="#e8ab5d"/>
  <rect x="45" y="40" width="2" height="1" fill="#9f512a"/>
  <rect x="47" y="40" width="2" height="1" fill="#303432"/>
  <rect x="63" y="40" width="1" height="1" fill="#303432"/>
  <rect x="64" y="40" width="1" height="1" fill="#e8ab5d"/>
  <rect x="65" y="40" width="1" height="1" fill="#dc7c31"/>
  <rect x="66" y="40" width="2" height="1" fill="#9f512a"/>
  <rect x="68" y="40" width="1" height="1" fill="#303432"/>
  <rect x="24" y="41" width="1" height="1" fill="#303432"/>
  <rect x="25" y="41" width="1" height="1" fill="#473523"/>
  <rect x="26" y="41" width="1" height="1" fill="#303432"/>
  <rect x="42" y="41" width="1" height="1" fill="#303432"/>
  <rect x="43" y="41" width="1" height="1" fill="#473523"/>
  <rect x="44" y="41" width="1" height="1" fill="#e8ab5d"/>
  <rect x="45" y="41" width="2" height="1" fill="#9f512a"/>
  <rect x="47" y="41" width="2" height="1" fill="#303432"/>
  <rect x="63" y="41" width="1" height="1" fill="#303432"/>
  <rect x="64" y="41" width="1" height="1" fill="#e8ab5d"/>
  <rect x="65" y="41" width="1" height="1" fill="#dc7c31"/>
  <rect x="66" y="41" width="2" height="1" fill="#9f512a"/>
  <rect x="68" y="41" width="1" height="1" fill="#303432"/>
  <rect x="22" y="42" width="2" height="1" fill="#303432"/>
  <rect x="24" y="42" width="2" height="1" fill="#e8ab5d"/>
  <rect x="26" y="42" width="1" height="1" fill="#303432"/>
  <rect x="42" y="42" width="1" height="1" fill="#303432"/>
  <rect x="43" y="42" width="1" height="1" fill="#473523"/>
  <rect x="44" y="42" width="1" height="1" fill="#e8ab5d"/>
  <rect x="45" y="42" width="2" height="1" fill="#9f512a"/>
  <rect x="47" y="42" width="2" height="1" fill="#303432"/>
  <rect x="63" y="42" width="1" height="1" fill="#303432"/>
  <rect x="64" y="42" width="1" height="1" fill="#e8ab5d"/>
  <rect x="65" y="42" width="1" height="1" fill="#dc7c31"/>
  <rect x="66" y="42" width="2" height="1" fill="#9f512a"/>
  <rect x="68" y="42" width="1" height="1" fill="#303432"/>
  <rect x="22" y="43" width="2" height="1" fill="#303432"/>
  <rect x="24" y="43" width="2" height="1" fill="#e8ab5d"/>
  <rect x="26" y="43" width="1" height="1" fill="#303432"/>
  <rect x="42" y="43" width="1" height="1" fill="#303432"/>
  <rect x="43" y="43" width="1" height="1" fill="#473523"/>
  <rect x="44" y="43" width="1" height="1" fill="#e8ab5d"/>
  <rect x="45" y="43" width="2" height="1" fill="#9f512a"/>
  <rect x="47" y="43" width="2" height="1" fill="#303432"/>
  <rect x="58" y="43" width="6" height="1" fill="#303432"/>
  <rect x="64" y="43" width="1" height="1" fill="#e8ab5d"/>
  <rect x="65" y="43" width="1" height="1" fill="#dc7c31"/>
  <rect x="66" y="43" width="2" height="1" fill="#9f512a"/>
  <rect x="68" y="43" width="1" height="1" fill="#303432"/>
  <rect x="22" y="44" width="1" height="1" fill="#b3845b"/>
  <rect x="23" y="44" width="1" height="1" fill="#956b4d"/>
  <rect x="24" y="44" width="2" height="1" fill="#e8ab5d"/>
  <rect x="26" y="44" width="1" height="1" fill="#303432"/>
  <rect x="42" y="44" width="1" height="1" fill="#303432"/>
  <rect x="43" y="44" width="1" height="1" fill="#473523"/>
  <rect x="44" y="44" width="1" height="1" fill="#e8ab5d"/>
  <rect x="45" y="44" width="2" height="1" fill="#9f512a"/>
  <rect x="47" y="44" width="2" height="1" fill="#303432"/>
  <rect x="56" y="44" width="2" height="1" fill="#595650"/>
  <rect x="58" y="44" width="5" height="1" fill="#956b4d"/>
  <rect x="63" y="44" width="1" height="1" fill="#5e4737"/>
  <rect x="64" y="44" width="1" height="1" fill="#e8ab5d"/>
  <rect x="65" y="44" width="1" height="1" fill="#dc7c31"/>
  <rect x="66" y="44" width="2" height="1" fill="#9f512a"/>
  <rect x="68" y="44" width="1" height="1" fill="#303432"/>
  <rect x="21" y="45" width="1" height="1" fill="#303432"/>
  <rect x="23" y="45" width="1" height="1" fill="#e8ab5d"/>
  <rect x="24" y="45" width="1" height="1" fill="#dc7c31"/>
  <rect x="25" y="45" width="1" height="1" fill="#e8ab5d"/>
  <rect x="26" y="45" width="1" height="1" fill="#303432"/>
  <rect x="42" y="45" width="1" height="1" fill="#303432"/>
  <rect x="43" y="45" width="1" height="1" fill="#473523"/>
  <rect x="44" y="45" width="1" height="1" fill="#e8ab5d"/>
  <rect x="45" y="45" width="2" height="1" fill="#9f512a"/>
  <rect x="47" y="45" width="2" height="1" fill="#303432"/>
  <rect x="56" y="45" width="2" height="1" fill="#303432"/>
  <rect x="58" y="45" width="5" height="1" fill="#dc7c31"/>
  <rect x="63" y="45" width="1" height="1" fill="#9f512a"/>
  <rect x="64" y="45" width="1" height="1" fill="#dc7c31"/>
  <rect x="65" y="45" width="1" height="1" fill="#da8235"/>
  <rect x="66" y="45" width="2" height="1" fill="#9f512a"/>
  <rect x="68" y="45" width="1" height="1" fill="#303432"/>
  <rect x="21" y="46" width="1" height="1" fill="#303432"/>
  <rect x="22" y="46" width="2" height="1" fill="#e8ab5d"/>
  <rect x="24" y="46" width="2" height="1" fill="#dc7c31"/>
  <rect x="26" y="46" width="1" height="1" fill="#9f512a"/>
  <rect x="27" y="46" width="1" height="1" fill="#5e4737"/>
  <rect x="28" y="46" width="1" height="1" fill="#956b4d"/>
  <rect x="42" y="46" width="1" height="1" fill="#303432"/>
  <rect x="43" y="46" width="1" height="1" fill="#473523"/>
  <rect x="44" y="46" width="1" height="1" fill="#e8ab5d"/>
  <rect x="45" y="46" width="2" height="1" fill="#9f512a"/>
  <rect x="47" y="46" width="2" height="1" fill="#303432"/>
  <rect x="55" y="46" width="1" height="1" fill="#303432"/>
  <rect x="56" y="46" width="1" height="1" fill="#e8ab5d"/>
  <rect x="57" y="46" width="1" height="1" fill="#dc7c31"/>
  <rect x="58" y="46" width="3" height="1" fill="#e8ab5d"/>
  <rect x="61" y="46" width="2" height="1" fill="#da8235"/>
  <rect x="63" y="46" width="3" height="1" fill="#dc7c31"/>
  <rect x="66" y="46" width="2" height="1" fill="#9f512a"/>
  <rect x="68" y="46" width="1" height="1" fill="#303432"/>
  <rect x="21" y="47" width="1" height="1" fill="#303432"/>
  <rect x="22" y="47" width="2" height="1" fill="#e8ab5d"/>
  <rect x="24" y="47" width="1" height="1" fill="#dc7c31"/>
  <rect x="25" y="47" width="1" height="1" fill="#e8ab5d"/>
  <rect x="26" y="47" width="1" height="1" fill="#9f512a"/>
  <rect x="27" y="47" width="1" height="1" fill="#473523"/>
  <rect x="28" y="47" width="1" height="1" fill="#595650"/>
  <rect x="42" y="47" width="1" height="1" fill="#303432"/>
  <rect x="43" y="47" width="1" height="1" fill="#473523"/>
  <rect x="44" y="47" width="1" height="1" fill="#e8ab5d"/>
  <rect x="45" y="47" width="2" height="1" fill="#9f512a"/>
  <rect x="47" y="47" width="2" height="1" fill="#303432"/>
  <rect x="55" y="47" width="1" height="1" fill="#303432"/>
  <rect x="56" y="47" width="2" height="1" fill="#dc7c31"/>
  <rect x="58" y="47" width="3" height="1" fill="#e8ab5d"/>
  <rect x="61" y="47" width="5" height="1" fill="#dc7c31"/>
  <rect x="66" y="47" width="2" height="1" fill="#9f512a"/>
  <rect x="68" y="47" width="1" height="1" fill="#303432"/>
  <rect x="19" y="48" width="2" height="1" fill="#303432"/>
  <rect x="21" y="48" width="1" height="1" fill="#e8ab5d"/>
  <rect x="22" y="48" width="2" height="1" fill="#da8235"/>
  <rect x="24" y="48" width="2" height="1" fill="#9f512a"/>
  <rect x="26" y="48" width="1" height="1" fill="#dc7c31"/>
  <rect x="27" y="48" width="2" height="1" fill="#303432"/>
  <rect x="42" y="48" width="1" height="1" fill="#303432"/>
  <rect x="43" y="48" width="1" height="1" fill="#473523"/>
  <rect x="44" y="48" width="1" height="1" fill="#e8ab5d"/>
  <rect x="45" y="48" width="2" height="1" fill="#9f512a"/>
  <rect x="47" y="48" width="2" height="1" fill="#303432"/>
  <rect x="53" y="48" width="1" height="1" fill="#303432"/>
  <rect x="54" y="48" width="1" height="1" fill="#473523"/>
  <rect x="55" y="48" width="1" height="1" fill="#dc7c31"/>
  <rect x="56" y="48" width="4" height="1" fill="#e8ab5d"/>
  <rect x="60" y="48" width="6" height="1" fill="#dc7c31"/>
  <rect x="66" y="48" width="2" height="1" fill="#9f512a"/>
  <rect x="68" y="48" width="1" height="1" fill="#303432"/>
  <rect x="19" y="49" width="2" height="1" fill="#303432"/>
  <rect x="21" y="49" width="1" height="1" fill="#e8ab5d"/>
  <rect x="22" y="49" width="1" height="1" fill="#da8235"/>
  <rect x="23" y="49" width="1" height="1" fill="#dc7c31"/>
  <rect x="24" y="49" width="2" height="1" fill="#473523"/>
  <rect x="26" y="49" width="1" height="1" fill="#dc7c31"/>
  <rect x="27" y="49" width="1" height="1" fill="#473523"/>
  <rect x="28" y="49" width="1" height="1" fill="#303432"/>
  <rect x="42" y="49" width="1" height="1" fill="#303432"/>
  <rect x="43" y="49" width="1" height="1" fill="#473523"/>
  <rect x="44" y="49" width="1" height="1" fill="#e8ab5d"/>
  <rect x="45" y="49" width="2" height="1" fill="#9f512a"/>
  <rect x="47" y="49" width="2" height="1" fill="#303432"/>
  <rect x="53" y="49" width="1" height="1" fill="#303432"/>
  <rect x="54" y="49" width="1" height="1" fill="#473523"/>
  <rect x="55" y="49" width="1" height="1" fill="#dc7c31"/>
  <rect x="56" y="49" width="2" height="1" fill="#e8ab5d"/>
  <rect x="58" y="49" width="2" height="1" fill="#da8235"/>
  <rect x="60" y="49" width="6" height="1" fill="#dc7c31"/>
  <rect x="66" y="49" width="2" height="1" fill="#9f512a"/>
  <rect x="68" y="49" width="1" height="1" fill="#303432"/>
  <rect x="19" y="50" width="2" height="1" fill="#303432"/>
  <rect x="21" y="50" width="1" height="1" fill="#e8ab5d"/>
  <rect x="22" y="50" width="2" height="1" fill="#da8235"/>
  <rect x="24" y="50" width="3" height="1" fill="#303432"/>
  <rect x="27" y="50" width="2" height="1" fill="#e8ab5d"/>
  <rect x="29" y="50" width="2" height="1" fill="#303432"/>
  <rect x="42" y="50" width="2" height="1" fill="#303432"/>
  <rect x="44" y="50" width="1" height="1" fill="#e8ab5d"/>
  <rect x="45" y="50" width="2" height="1" fill="#9f512a"/>
  <rect x="47" y="50" width="2" height="1" fill="#303432"/>
  <rect x="53" y="50" width="1" height="1" fill="#303432"/>
  <rect x="54" y="50" width="1" height="1" fill="#473523"/>
  <rect x="55" y="50" width="1" height="1" fill="#dc7c31"/>
  <rect x="56" y="50" width="2" height="1" fill="#e8ab5d"/>
  <rect x="58" y="50" width="8" height="1" fill="#dc7c31"/>
  <rect x="66" y="50" width="2" height="1" fill="#9f512a"/>
  <rect x="68" y="50" width="1" height="1" fill="#303432"/>
  <rect x="19" y="51" width="2" height="1" fill="#303432"/>
  <rect x="21" y="51" width="1" height="1" fill="#e8ab5d"/>
  <rect x="22" y="51" width="2" height="1" fill="#da8235"/>
  <rect x="24" y="51" width="1" height="1" fill="#303432"/>
  <rect x="25" y="51" width="1" height="1" fill="#595650"/>
  <rect x="26" y="51" width="1" height="1" fill="#303432"/>
  <rect x="27" y="51" width="2" height="1" fill="#b3845b"/>
  <rect x="29" y="51" width="2" height="1" fill="#303432"/>
  <rect x="42" y="51" width="2" height="1" fill="#473523"/>
  <rect x="44" y="51" width="1" height="1" fill="#e8ab5d"/>
  <rect x="45" y="51" width="2" height="1" fill="#9f512a"/>
  <rect x="47" y="51" width="2" height="1" fill="#303432"/>
  <rect x="53" y="51" width="1" height="1" fill="#303432"/>
  <rect x="54" y="51" width="1" height="1" fill="#473523"/>
  <rect x="55" y="51" width="11" height="1" fill="#dc7c31"/>
  <rect x="66" y="51" width="2" height="1" fill="#9f512a"/>
  <rect x="68" y="51" width="1" height="1" fill="#303432"/>
  <rect x="19" y="52" width="2" height="1" fill="#303432"/>
  <rect x="21" y="52" width="1" height="1" fill="#e8ab5d"/>
  <rect x="22" y="52" width="1" height="1" fill="#da8235"/>
  <rect x="23" y="52" width="1" height="1" fill="#dc7c31"/>
  <rect x="24" y="52" width="1" height="1" fill="#303432"/>
  <rect x="27" y="52" width="4" height="1" fill="#303432"/>
  <rect x="40" y="52" width="2" height="1" fill="#303432"/>
  <rect x="42" y="52" width="2" height="1" fill="#e8ab5d"/>
  <rect x="44" y="52" width="1" height="1" fill="#dc7c31"/>
  <rect x="45" y="52" width="2" height="1" fill="#9f512a"/>
  <rect x="47" y="52" width="2" height="1" fill="#303432"/>
  <rect x="53" y="52" width="1" height="1" fill="#303432"/>
  <rect x="54" y="52" width="1" height="1" fill="#473523"/>
  <rect x="55" y="52" width="9" height="1" fill="#dc7c31"/>
  <rect x="64" y="52" width="4" height="1" fill="#9f512a"/>
  <rect x="68" y="52" width="1" height="1" fill="#303432"/>
  <rect x="19" y="53" width="2" height="1" fill="#303432"/>
  <rect x="21" y="53" width="1" height="1" fill="#e8ab5d"/>
  <rect x="22" y="53" width="1" height="1" fill="#da8235"/>
  <rect x="23" y="53" width="1" height="1" fill="#dc7c31"/>
  <rect x="24" y="53" width="2" height="1" fill="#303432"/>
  <rect x="40" y="53" width="2" height="1" fill="#303432"/>
  <rect x="42" y="53" width="2" height="1" fill="#e8ab5d"/>
  <rect x="44" y="53" width="1" height="1" fill="#dc7c31"/>
  <rect x="45" y="53" width="2" height="1" fill="#9f512a"/>
  <rect x="47" y="53" width="2" height="1" fill="#303432"/>
  <rect x="55" y="53" width="1" height="1" fill="#303432"/>
  <rect x="56" y="53" width="1" height="1" fill="#da8235"/>
  <rect x="57" y="53" width="6" height="1" fill="#dc7c31"/>
  <rect x="63" y="53" width="3" height="1" fill="#9f512a"/>
  <rect x="66" y="53" width="1" height="1" fill="#473523"/>
  <rect x="67" y="53" width="1" height="1" fill="#303432"/>
  <rect x="19" y="54" width="2" height="1" fill="#303432"/>
  <rect x="21" y="54" width="1" height="1" fill="#e8ab5d"/>
  <rect x="22" y="54" width="1" height="1" fill="#da8235"/>
  <rect x="23" y="54" width="1" height="1" fill="#dc7c31"/>
  <rect x="24" y="54" width="2" height="1" fill="#303432"/>
  <rect x="40" y="54" width="2" height="1" fill="#303432"/>
  <rect x="42" y="54" width="2" height="1" fill="#e8ab5d"/>
  <rect x="44" y="54" width="1" height="1" fill="#dc7c31"/>
  <rect x="45" y="54" width="2" height="1" fill="#9f512a"/>
  <rect x="47" y="54" width="2" height="1" fill="#303432"/>
  <rect x="55" y="54" width="1" height="1" fill="#303432"/>
  <rect x="56" y="54" width="1" height="1" fill="#e8ab5d"/>
  <rect x="57" y="54" width="2" height="1" fill="#dc7c31"/>
  <rect x="59" y="54" width="2" height="1" fill="#da8235"/>
  <rect x="61" y="54" width="1" height="1" fill="#dc7c31"/>
  <rect x="63" y="54" width="3" height="1" fill="#9f512a"/>
  <rect x="66" y="54" width="2" height="1" fill="#303432"/>
  <rect x="19" y="55" width="1" height="1" fill="#303432"/>
  <rect x="20" y="55" width="1" height="1" fill="#473523"/>
  <rect x="21" y="55" width="3" height="1" fill="#dc7c31"/>
  <rect x="24" y="55" width="1" height="1" fill="#303432"/>
  <rect x="39" y="55" width="1" height="1" fill="#303432"/>
  <rect x="41" y="55" width="1" height="1" fill="#e8ab5d"/>
  <rect x="42" y="55" width="3" height="1" fill="#dc7c31"/>
  <rect x="45" y="55" width="2" height="1" fill="#9f512a"/>
  <rect x="47" y="55" width="2" height="1" fill="#303432"/>
  <rect x="56" y="55" width="2" height="1" fill="#303432"/>
  <rect x="58" y="55" width="6" height="1" fill="#9f512a"/>
  <rect x="64" y="55" width="1" height="1" fill="#473523"/>
  <rect x="65" y="55" width="1" height="1" fill="#303432"/>
  <rect x="19" y="56" width="1" height="1" fill="#303432"/>
  <rect x="20" y="56" width="1" height="1" fill="#473523"/>
  <rect x="21" y="56" width="1" height="1" fill="#dc7c31"/>
  <rect x="22" y="56" width="2" height="1" fill="#da8235"/>
  <rect x="24" y="56" width="2" height="1" fill="#473523"/>
  <rect x="39" y="56" width="1" height="1" fill="#303432"/>
  <rect x="40" y="56" width="2" height="1" fill="#e8ab5d"/>
  <rect x="42" y="56" width="3" height="1" fill="#dc7c31"/>
  <rect x="45" y="56" width="1" height="1" fill="#9f512a"/>
  <rect x="46" y="56" width="1" height="1" fill="#956b4d"/>
  <rect x="47" y="56" width="1" height="1" fill="#5e4737"/>
  <rect x="48" y="56" width="1" height="1" fill="#303432"/>
  <rect x="56" y="56" width="2" height="1" fill="#595650"/>
  <rect x="58" y="56" width="1" height="1" fill="#956b4d"/>
  <rect x="59" y="56" width="5" height="1" fill="#9f512a"/>
  <rect x="64" y="56" width="2" height="1" fill="#595650"/>
  <rect x="19" y="57" width="1" height="1" fill="#303432"/>
  <rect x="20" y="57" width="1" height="1" fill="#473523"/>
  <rect x="22" y="57" width="1" height="1" fill="#da8235"/>
  <rect x="23" y="57" width="2" height="1" fill="#dc7c31"/>
  <rect x="25" y="57" width="1" height="1" fill="#e8ab5d"/>
  <rect x="26" y="57" width="1" height="1" fill="#303432"/>
  <rect x="37" y="57" width="2" height="1" fill="#303432"/>
  <rect x="39" y="57" width="1" height="1" fill="#e8ab5d"/>
  <rect x="40" y="57" width="4" height="1" fill="#da8235"/>
  <rect x="44" y="57" width="1" height="1" fill="#9f512a"/>
  <rect x="45" y="57" width="1" height="1" fill="#473523"/>
  <rect x="46" y="57" width="1" height="1" fill="#303432"/>
  <rect x="59" y="57" width="5" height="1" fill="#303432"/>
  <rect x="21" y="58" width="1" height="1" fill="#303432"/>
  <rect x="22" y="58" width="1" height="1" fill="#e8ab5d"/>
  <rect x="23" y="58" width="3" height="1" fill="#dc7c31"/>
  <rect x="26" y="58" width="1" height="1" fill="#e8ab5d"/>
  <rect x="27" y="58" width="10" height="1" fill="#303432"/>
  <rect x="38" y="58" width="1" height="1" fill="#e8ab5d"/>
  <rect x="39" y="58" width="3" height="1" fill="#dc7c31"/>
  <rect x="42" y="58" width="3" height="1" fill="#9f512a"/>
  <rect x="45" y="58" width="1" height="1" fill="#473523"/>
  <rect x="46" y="58" width="1" height="1" fill="#303432"/>
  <rect x="21" y="59" width="1" height="1" fill="#303432"/>
  <rect x="22" y="59" width="1" height="1" fill="#b3845b"/>
  <rect x="23" y="59" width="1" height="1" fill="#da8235"/>
  <rect x="24" y="59" width="3" height="1" fill="#dc7c31"/>
  <rect x="27" y="59" width="1" height="1" fill="#473523"/>
  <rect x="28" y="59" width="9" height="1" fill="#303432"/>
  <rect x="37" y="59" width="2" height="1" fill="#e8ab5d"/>
  <rect x="39" y="59" width="1" height="1" fill="#da8235"/>
  <rect x="40" y="59" width="2" height="1" fill="#dc7c31"/>
  <rect x="42" y="59" width="3" height="1" fill="#9f512a"/>
  <rect x="45" y="59" width="1" height="1" fill="#473523"/>
  <rect x="46" y="59" width="1" height="1" fill="#303432"/>
  <rect x="22" y="60" width="2" height="1" fill="#303432"/>
  <rect x="24" y="60" width="5" height="1" fill="#dc7c31"/>
  <rect x="29" y="60" width="8" height="1" fill="#e8ab5d"/>
  <rect x="37" y="60" width="1" height="1" fill="#dc7c31"/>
  <rect x="38" y="60" width="2" height="1" fill="#da8235"/>
  <rect x="40" y="60" width="4" height="1" fill="#9f512a"/>
  <rect x="44" y="60" width="1" height="1" fill="#303432"/>
  <rect x="22" y="61" width="1" height="1" fill="#473523"/>
  <rect x="23" y="61" width="1" height="1" fill="#303432"/>
  <rect x="24" y="61" width="2" height="1" fill="#e8ab5d"/>
  <rect x="26" y="61" width="3" height="1" fill="#dc7c31"/>
  <rect x="29" y="61" width="8" height="1" fill="#e8ab5d"/>
  <rect x="37" y="61" width="1" height="1" fill="#da8235"/>
  <rect x="38" y="61" width="1" height="1" fill="#dc7c31"/>
  <rect x="39" y="61" width="1" height="1" fill="#da8235"/>
  <rect x="40" y="61" width="3" height="1" fill="#9f512a"/>
  <rect x="43" y="61" width="1" height="1" fill="#956b4d"/>
  <rect x="44" y="61" width="1" height="1" fill="#303432"/>
  <rect x="24" y="62" width="2" height="1" fill="#303432"/>
  <rect x="26" y="62" width="8" height="1" fill="#dc7c31"/>
  <rect x="34" y="62" width="1" height="1" fill="#da8235"/>
  <rect x="35" y="62" width="2" height="1" fill="#dc7c31"/>
  <rect x="37" y="62" width="1" height="1" fill="#da8235"/>
  <rect x="38" y="62" width="1" height="1" fill="#dc7c31"/>
  <rect x="39" y="62" width="3" height="1" fill="#9f512a"/>
  <rect x="42" y="62" width="2" height="1" fill="#303432"/>
  <rect x="26" y="63" width="1" height="1" fill="#473523"/>
  <rect x="27" y="63" width="12" height="1" fill="#9f512a"/>
  <rect x="39" y="63" width="1" height="1" fill="#473523"/>
  <rect x="40" y="63" width="2" height="1" fill="#303432"/>
  <rect x="26" y="64" width="1" height="1" fill="#303432"/>
  <rect x="27" y="64" width="1" height="1" fill="#956b4d"/>
  <rect x="28" y="64" width="10" height="1" fill="#9f512a"/>
  <rect x="38" y="64" width="1" height="1" fill="#956b4d"/>
  <rect x="39" y="64" width="3" height="1" fill="#303432"/>
  <rect x="27" y="65" width="12" height="1" fill="#303432"/>
  <rect x="27" y="66" width="12" height="1" fill="#303432"/>
</svg>